# xmcd
#
# Track frame offsets:
#	150
#	13894
#	35843
#	53919
#	77109
#	93368
#	115037
#	133095
#	153565
#	176225
#	197647
#
# Disc length: 2693 seconds
#
# Revision: 1
# Processed by: cddbd v1.5.1PL2 Copyright (c) Steve Scherf et al.
# Submitted via: audiograbber 1.83.01
#
DISCID=960a830b
DTITLE=Feuer über Deutschland - Feuer über Deutschland
DYEAR=2006
DGENRE=Hip-Hop
TTITLE0=Team Stuttgart - Feuerzeuge
TTITLE1=Maddest and Bruno Betti - Was ist aus uns geworden
TTITLE2=Der neue Westen - Oh-Kay
TTITLE3=ADF Team - Ready for War
TTITLE4=Royal Bunker Team - Wenn Berlin schiesst
TTITLE5=Team Ruhrpott - Ruhrpottfeuer
TTITLE6=Rec.On Team - Rec.On Roll Pt.4
TTITLE7=Bassquiat Team - Diss die Anderen
TTITLE8=1ON1 Allstars - Champions League
TTITLE9=Team Bielefeld - Gilead 4
TTITLE10=Bonustrack - Beatbox 1ON1
EXTD=
EXTT0=
EXTT1=
EXTT2=
EXTT3=
EXTT4=
EXTT5=
EXTT6=
EXTT7=
EXTT8=
EXTT9=
EXTT10=
PLAYORDER=
